<svg xmlns="http://www.w3.org/2000/svg" xmlns:xlink="http://www.w3.org/1999/xlink" width="500" zoomAndPan="magnify" viewBox="0 0 375 374.999991" height="500" preserveAspectRatio="xMidYMid meet" version="1.0"><defs><filter x="0%" y="0%" width="100%" height="100%" id="831033f9c4"><feColorMatrix values="0 0 0 0 1 0 0 0 0 1 0 0 0 0 1 0 0 0 1 0" color-interpolation-filters="sRGB"/></filter><clipPath id="3d3bd688ab"><path d="M 69 0.761719 L 298 0.761719 L 298 229 L 69 229 Z M 69 0.761719 " clip-rule="nonzero"/></clipPath><clipPath id="db47e774ba"><path d="M 171 5 L 338.0625 5 L 338.0625 289 L 171 289 Z M 171 5 " clip-rule="nonzero"/></clipPath><clipPath id="1b372712e7"><path d="M 1.023438 28 L 258 28 L 258 162 L 1.023438 162 Z M 1.023438 28 " clip-rule="nonzero"/></clipPath><clipPath id="7a7f475dff"><path d="M 1.023438 66 L 138 66 L 138 331 L 1.023438 331 Z M 1.023438 66 " clip-rule="nonzero"/></clipPath><clipPath id="37971323ff"><path d="M 41 117 L 208 117 L 208 338.628906 L 41 338.628906 Z M 41 117 " clip-rule="nonzero"/></clipPath><clipPath id="766c413e9e"><path d="M 4 0.640625 L 342.160156 0.640625 L 342.160156 339.039062 L 4 339.039062 Z M 4 0.640625 " clip-rule="nonzero"/></clipPath><mask id="7d8fec5c33"><g filter="url(#831033f9c4)"><rect x="-96.5" width="540" fill="#000000" y="-96.499998" height="539.999987" fill-opacity="0.54"/></g></mask><clipPath id="ed6d5474f6"><path d="M 68 0.761719 L 297 0.761719 L 297 229 L 68 229 Z M 68 0.761719 " clip-rule="nonzero"/></clipPath><clipPath id="6b4d5ce13d"><path d="M 171 5 L 337.5625 5 L 337.5625 289 L 171 289 Z M 171 5 " clip-rule="nonzero"/></clipPath><clipPath id="18f0e44226"><path d="M 0.523438 28 L 257 28 L 257 162 L 0.523438 162 Z M 0.523438 28 " clip-rule="nonzero"/></clipPath><clipPath id="3c3ae65a3b"><path d="M 0.523438 66 L 138 66 L 138 331 L 0.523438 331 Z M 0.523438 66 " clip-rule="nonzero"/></clipPath><clipPath id="d218c01606"><path d="M 41 117 L 208 117 L 208 338.628906 L 41 338.628906 Z M 41 117 " clip-rule="nonzero"/></clipPath><clipPath id="1ce1c52e69"><rect x="0" width="339" y="0" height="340"/></clipPath><clipPath id="59c9233f7c"><rect x="0" width="343" y="0" height="340"/></clipPath></defs><g transform="matrix(1, 0, 0, 1, 14, 14)"><g clip-path="url(#59c9233f7c)"><g clip-path="url(#3d3bd688ab)"><path stroke-linecap="butt" transform="matrix(0.112689, 0, 0, 0.112689, 1.022848, 0.849422)" fill-opacity="1" fill="#5ce1e6" fill-rule="nonzero" stroke-linejoin="miter" d="M 710.615843 194.137013 C 927.334746 65.568488 1178.856238 -7.225769 1431.556304 0.608279 C 1620.44007 15.409778 1807.694631 67.336349 1971.793686 163.424769 C 2250.561029 327.073192 2471.543596 592.668241 2567.909327 902.598458 C 2633.632143 1101.257453 2643.372708 1317.283078 2601.325358 1522.008262 C 2564.75491 1706.108405 2477.991087 1879.532058 2354.448833 2020.787581 C 2440.90068 1843.134929 2493.17389 1646.451778 2488.112956 1448.070094 C 2486.310431 1247.989878 2431.784066 1048.741596 2328.797523 877.120468 C 2273.369896 780.650745 2200.090343 696.278734 2126.048184 613.813239 C 1893.4532 355.150978 1561.546049 183.252538 1212.168277 164.187375 C 1005.952545 151.812351 798.280927 189.18007 606.520054 264.920762 C 636.088388 234.48583 674.738673 215.940626 710.615843 194.137013 Z M 710.615843 194.137013 " stroke="#000000" stroke-width="0.094" stroke-opacity="1" stroke-miterlimit="4"/></g><g clip-path="url(#db47e774ba)"><path stroke-linecap="butt" transform="matrix(0.112689, 0, 0, 0.112689, 1.022848, 0.849422)" fill-opacity="1" fill="#5ce1e6" fill-rule="nonzero" stroke-linejoin="miter" d="M 1905.966879 41.754367 C 1962.469088 46.815301 2015.504905 68.341603 2068.332737 87.649413 C 2374.588578 198.400676 2639.490347 417.788703 2806.951804 696.972012 C 2907.165231 865.022756 2974.586579 1054.461145 2990.739972 1250.069714 C 3007.586643 1471.468249 2959.126466 1696.818472 2856.90253 1893.605614 C 2773.223798 2050.147932 2660.49669 2192.096734 2521.424994 2302.951989 C 2387.587552 2406.839794 2231.807841 2483.967043 2065.767606 2519.670893 C 1885.237848 2559.430423 1693.303655 2564.768669 1515.651003 2508.647763 C 1697.567319 2495.475468 1881.563471 2463.238012 2045.939837 2380.668525 C 2374.103283 2219.481241 2632.245586 1908.580433 2707.189007 1548.110203 C 2791.872993 1163.929843 2688.054516 744.184288 2436.845 441.880136 C 2295.485485 268.213836 2108.681554 134.861689 1905.966879 41.754367 Z M 1905.966879 41.754367 " stroke="#000000" stroke-width="0.094" stroke-opacity="1" stroke-miterlimit="4"/></g><g clip-path="url(#1b372712e7)"><path stroke-linecap="butt" transform="matrix(0.112689, 0, 0, 0.112689, 1.022848, 0.849422)" fill-opacity="1" fill="#5ce1e6" fill-rule="nonzero" stroke-linejoin="miter" d="M 512.338151 401.357999 C 700.216663 296.152965 917.039559 241.730591 1132.371905 249.945943 C 1459.322113 258.473271 1784.019166 392.033401 2013.806372 626.292255 C 2064.693024 682.309169 2113.950472 739.989952 2171.249952 789.663367 C 2220.438072 832.022692 2272.953929 883.255984 2274.756453 952.86116 C 2279.2281 1069.643947 2257.80579 1185.733456 2240.647144 1300.956366 C 2234.61562 1336.729544 2231.218554 1382.347279 2194.440122 1400.788491 C 2145.182675 1428.034342 2079.147884 1434.10053 2030.375732 1402.937655 C 1994.775873 1375.379829 1970.892424 1336.244249 1941.358754 1302.828219 C 1882.256749 1230.241945 1817.123221 1161.538031 1770.326912 1080.043127 C 1740.203955 1028.289876 1746.027496 964.265593 1765.855265 910.01654 C 1779.062223 866.201329 1802.841681 821.796832 1792.026534 774.79254 C 1780.136805 728.620183 1740.585259 697.38798 1703.113548 671.494022 C 1517.418863 551.730137 1293.073895 500.98214 1073.685868 504.136558 C 727.774489 507.706943 389.00388 676.346973 174.468804 947.210939 C 103.477071 1032.761523 50.545246 1131.415074 4.546209 1232.252453 C 15.638667 1113.875125 54.531599 999.93478 98.728112 890.292762 C 155.9236 758.049861 235.546652 635.304877 331.808392 528.054671 C 383.180339 474.602888 448.903155 438.413743 512.338151 401.357999 M 2153.813994 1164.727113 C 2178.772025 1153.322679 2198.91177 1131.311082 2205.844556 1104.550527 C 2210.004228 1076.784717 2201.199589 1049.816178 2194.162811 1023.540917 C 2140.121741 1049.226891 2145.390658 1115.365674 2153.813994 1164.727113 M 1879.275651 1072.31307 C 1884.925872 1101.188125 1892.482609 1131.519066 1912.795674 1154.015958 C 1933.004746 1176.51285 1962.469088 1186.91203 1990.304226 1196.652594 C 1986.144554 1136.857312 1944.131868 1073.803619 1879.275651 1072.31307 Z M 1879.275651 1072.31307 " stroke="#000000" stroke-width="0.094" stroke-opacity="1" stroke-miterlimit="4"/></g><g clip-path="url(#7a7f475dff)"><path stroke-linecap="butt" transform="matrix(0.112689, 0, 0, 0.112689, 1.022848, 0.849422)" fill-opacity="1" fill="#5ce1e6" fill-rule="nonzero" stroke-linejoin="miter" d="M 894.126699 606.360494 C 998.534463 585.042176 1106.096645 574.642996 1212.584244 584.660872 C 1090.740523 616.586354 969.694072 655.929917 859.532095 718.013019 C 726.873227 794.620309 604.058915 891.679319 509.461044 1012.829762 C 348.551071 1213.18729 251.908028 1467.308577 251.596053 1725.242896 C 250.729455 1937.628808 304.631869 2149.078794 401.309576 2337.858569 C 487.553439 2500.917706 606.312071 2646.85286 748.607512 2764.259598 C 825.041483 2830.259725 914.439764 2877.853304 1003.768717 2923.644358 C 864.697021 2891.649549 735.608538 2825.510766 615.844652 2749.180788 C 458.29708 2645.986262 317.145549 2514.609959 215.406908 2355.086543 C 107.359431 2195.4938 39.55678 2010.28441 10.785716 1820.118078 C -15.662864 1643.747991 7.839282 1461.138397 69.402426 1294.300891 C 146.529675 1096.99379 280.852412 922.218244 453.062827 798.606662 C 583.1219 701.928955 736.68312 641.267074 894.126699 606.360494 Z M 894.126699 606.360494 " stroke="#000000" stroke-width="0.094" stroke-opacity="1" stroke-miterlimit="4"/></g><g clip-path="url(#37971323ff)"><path stroke-linecap="butt" transform="matrix(0.112689, 0, 0, 0.112689, 1.022848, 0.849422)" fill-opacity="1" fill="#5ce1e6" fill-rule="nonzero" stroke-linejoin="miter" d="M 608.426571 1032.38022 C 595.323604 1066.281546 580.244794 1099.385601 566.379221 1133.009615 C 441.346418 1451.051193 480.239349 1823.792455 653.90565 2116.252051 C 680.18091 2161.869785 716.85535 2202.010619 732.835423 2253.174583 C 854.887128 2600.056552 1172.720722 2862.878485 1530.799141 2936.366021 C 1630.353954 2961.428044 1733.236505 2960.526782 1834.663171 2971.445921 C 1661.967461 3008.016369 1480.432448 3012.592008 1308.949976 2967.078265 C 962.622629 2875.461493 658.7586 2631.808714 497.883291 2311.271333 C 413.788592 2148.281524 372.954479 1965.463946 363.040595 1783.062335 C 351.636161 1514.174213 438.088008 1241.438395 608.426571 1032.38022 Z M 608.426571 1032.38022 " stroke="#000000" stroke-width="0.094" stroke-opacity="1" stroke-miterlimit="4"/></g><path stroke-linecap="butt" transform="matrix(0.112689, 0, 0, 0.112689, 1.022848, 0.849422)" fill-opacity="1" fill="#5ce1e6" fill-rule="nonzero" stroke-linejoin="miter" d="M 968.203522 1501.383222 C 978.810686 1492.3706 991.671004 1486.824371 1003.9767 1480.480871 C 1000.89161 1484.25924 994.964078 1491.781313 991.878988 1495.663673 C 913.954469 1601.735306 866.568873 1732.487658 870.728545 1865.042534 C 874.992209 2034.167859 951.634163 2195.875103 1064.049295 2320.110636 C 1183.535869 2449.372439 1340.563482 2540.989211 1508.094266 2592.846454 C 1683.667082 2649.625975 1872.65484 2657.182712 2054.051197 2627.025091 C 2258.880372 2589.657372 2452.617089 2495.960763 2610.129997 2359.835502 C 2723.065088 2259.518082 2821.718639 2141.938024 2895.067519 2009.591131 C 2929.662123 1947.716012 2955.660073 1881.785214 2983.009915 1816.651685 C 2977.844989 1886.846148 2957.427933 1954.752791 2935.416336 2021.272877 C 2867.890996 2226.206043 2751.73216 2414.985818 2599.037539 2567.437792 C 2477.297809 2689.385505 2330.669376 2790.326875 2164.80246 2841.178864 C 1796.116878 2963.611872 1370.998414 2863.779748 1079.6134 2611.564977 C 940.229729 2492.217059 831.662294 2333.386922 785.177961 2154.936999 C 750.098061 2022.000819 752.5592 1878.31882 797.483657 1748.155755 C 830.48372 1652.205991 891.457577 1567.314021 968.203522 1501.383222 Z M 968.203522 1501.383222 " stroke="#000000" stroke-width="0.094" stroke-opacity="1" stroke-miterlimit="4"/><g clip-path="url(#766c413e9e)"><g mask="url(#7d8fec5c33)"><g transform="matrix(1, 0, 0, 1, 4, 0)"><g clip-path="url(#1ce1c52e69)"><g clip-path="url(#ed6d5474f6)"><path stroke-linecap="butt" transform="matrix(0.112689, 0, 0, 0.112689, 0.522044, 0.849422)" fill-opacity="1" fill="#0cc0df" fill-rule="nonzero" stroke-linejoin="miter" d="M 710.622972 194.137013 C 927.341876 65.568488 1178.863368 -7.225769 1431.563433 0.608279 C 1620.4472 15.409778 1807.701761 67.336349 1971.766152 163.424769 C 2250.568158 327.073192 2471.550726 592.668241 2567.916457 902.598458 C 2633.639273 1101.257453 2643.345174 1317.283078 2601.332488 1522.008262 C 2564.727375 1706.108405 2477.998217 1879.532058 2354.455963 2020.787581 C 2440.90781 1843.134929 2493.146356 1646.451778 2488.120085 1448.070094 C 2486.317561 1247.989878 2431.791196 1048.741596 2328.769989 877.120468 C 2273.377026 780.650745 2200.097473 696.278734 2126.055314 613.813239 C 1893.460329 355.150978 1561.553179 183.252538 1212.175407 164.187375 C 1005.959674 151.812351 798.253393 189.18007 606.527184 264.920762 C 636.060854 234.48583 674.745803 215.940626 710.622972 194.137013 Z M 710.622972 194.137013 " stroke="#000000" stroke-width="0.094" stroke-opacity="1" stroke-miterlimit="4"/></g><g clip-path="url(#6b4d5ce13d)"><path stroke-linecap="butt" transform="matrix(0.112689, 0, 0, 0.112689, 0.522044, 0.849422)" fill-opacity="1" fill="#0cc0df" fill-rule="nonzero" stroke-linejoin="miter" d="M 1905.939345 41.754367 C 1962.476218 46.815301 2015.512034 68.341603 2068.339867 87.649413 C 2374.595708 198.400676 2639.497477 417.788703 2806.924269 696.972012 C 2907.172361 865.022756 2974.593709 1054.461145 2990.747102 1250.069714 C 3007.593773 1471.468249 2959.098932 1696.818472 2856.90966 1893.605614 C 2773.230927 2050.147932 2660.50382 2192.096734 2521.39746 2302.951989 C 2387.560018 2406.839794 2231.814971 2483.967043 2065.774736 2519.670893 C 1885.244977 2559.430423 1693.310785 2564.768669 1515.623469 2508.647763 C 1697.574449 2495.475468 1881.570601 2463.238012 2045.946967 2380.668525 C 2374.075749 2219.481241 2632.252715 1908.580433 2707.196137 1548.110203 C 2791.880123 1163.929843 2688.061646 744.184288 2436.85213 441.880136 C 2295.457951 268.213836 2108.688684 134.861689 1905.939345 41.754367 Z M 1905.939345 41.754367 " stroke="#000000" stroke-width="0.094" stroke-opacity="1" stroke-miterlimit="4"/></g><path fill="#0cc0df" d="M 58.257812 46.078125 C 79.429688 34.222656 103.863281 28.089844 128.128906 29.015625 C 164.972656 29.976562 201.5625 45.027344 227.457031 71.425781 C 233.1875 77.738281 238.742188 84.238281 245.199219 89.835938 C 250.738281 94.609375 256.660156 100.382812 256.863281 108.226562 C 257.363281 121.386719 254.953125 134.46875 253.019531 147.453125 C 252.335938 151.484375 251.957031 156.625 247.8125 158.703125 C 242.261719 161.773438 234.820312 162.457031 229.324219 158.945312 C 225.3125 155.839844 222.621094 151.429688 219.289062 147.664062 C 212.632812 139.484375 205.292969 131.742188 200.019531 122.558594 C 196.621094 116.726562 197.28125 109.511719 199.515625 103.398438 C 201.003906 98.460938 203.683594 93.457031 202.464844 88.160156 C 201.125 82.957031 196.667969 79.4375 192.445312 76.519531 C 171.519531 63.023438 146.238281 57.304688 121.515625 57.660156 C 82.535156 58.0625 44.359375 77.066406 20.183594 107.589844 C 12.183594 117.230469 6.21875 128.347656 1.035156 139.710938 C 2.285156 126.371094 6.664062 113.53125 11.648438 101.175781 C 18.09375 86.273438 27.066406 72.441406 37.914062 60.355469 C 43.699219 54.332031 51.109375 50.253906 58.257812 46.078125 M 243.230469 132.101562 C 246.046875 130.816406 248.316406 128.335938 249.097656 125.320312 C 249.566406 122.191406 248.574219 119.152344 247.78125 116.191406 C 241.691406 119.085938 242.28125 126.539062 243.230469 132.101562 M 212.296875 121.6875 C 212.933594 124.941406 213.78125 128.359375 216.074219 130.894531 C 218.351562 133.429688 221.671875 134.601562 224.808594 135.699219 C 224.339844 128.960938 219.605469 121.855469 212.296875 121.6875 Z M 212.296875 121.6875 " fill-opacity="1" fill-rule="nonzero"/><g clip-path="url(#18f0e44226)"><path stroke-linecap="butt" transform="matrix(0.112689, 0, 0, 0.112689, 0.522044, 0.849422)" fill="none" stroke-linejoin="miter" d="M 512.34528 401.357999 C 700.223793 296.152965 917.046688 241.730591 1132.379035 249.945943 C 1459.329243 258.473271 1784.026296 392.033401 2013.813502 626.292255 C 2064.66549 682.309169 2113.957602 739.989952 2171.257082 789.663367 C 2220.410537 832.022692 2272.961059 883.255984 2274.763583 952.86116 C 2279.200566 1069.643947 2257.81292 1185.733456 2240.654274 1300.956366 C 2234.588086 1336.729544 2231.225684 1382.347279 2194.447252 1400.788491 C 2145.189805 1428.034342 2079.155014 1434.10053 2030.382861 1402.937655 C 1994.783003 1375.379829 1970.899554 1336.244249 1941.33122 1302.828219 C 1882.263879 1230.241945 1817.130351 1161.538031 1770.334042 1080.043127 C 1740.176421 1028.289876 1746.034626 964.265593 1765.862395 910.01654 C 1779.069353 866.201329 1802.848811 821.796832 1792.033664 774.79254 C 1780.143935 728.620183 1740.592389 697.38798 1703.120678 671.494022 C 1517.425993 551.730137 1293.081024 500.98214 1073.692998 504.136558 C 727.781619 507.706943 389.01101 676.346973 174.475934 947.210939 C 103.484201 1032.761523 50.552376 1131.415074 4.553338 1232.252453 C 15.645797 1113.875125 54.504065 999.93478 98.735242 890.292762 C 155.93073 758.049861 235.553782 635.304877 331.815522 528.054671 C 383.152805 474.602888 448.910285 438.413743 512.34528 401.357999 M 2153.78646 1164.727113 C 2178.779155 1153.322679 2198.918899 1131.311082 2205.851686 1104.550527 C 2210.011358 1076.784717 2201.206719 1049.816178 2194.169941 1023.540917 C 2140.128871 1049.226891 2145.363124 1115.365674 2153.78646 1164.727113 M 1879.282781 1072.31307 C 1884.933002 1101.188125 1892.455075 1131.519066 1912.802803 1154.015958 C 1933.011876 1176.51285 1962.476218 1186.91203 1990.311356 1196.652594 C 1986.151684 1136.857312 1944.138998 1073.803619 1879.282781 1072.31307 Z M 1879.282781 1072.31307 " stroke="#000000" stroke-width="0.094" stroke-opacity="1" stroke-miterlimit="4"/></g><g clip-path="url(#3c3ae65a3b)"><path stroke-linecap="butt" transform="matrix(0.112689, 0, 0, 0.112689, 0.522044, 0.849422)" fill-opacity="1" fill="#0cc0df" fill-rule="nonzero" stroke-linejoin="miter" d="M 894.133829 606.360494 C 998.541593 585.042176 1106.103774 574.642996 1212.55671 584.660872 C 1090.712988 616.586354 969.666537 655.929917 859.539225 718.013019 C 726.880357 794.620309 604.066045 891.679319 509.468174 1012.829762 C 348.558201 1213.18729 251.915158 1467.308577 251.603183 1725.242896 C 250.701921 1937.628808 304.638999 2149.078794 401.316706 2337.858569 C 487.560569 2500.917706 606.319201 2646.85286 748.579978 2764.259598 C 825.048612 2830.259725 914.446893 2877.853304 1003.775847 2923.644358 C 864.704151 2891.649549 735.615667 2825.510766 615.851782 2749.180788 C 458.30421 2645.986262 317.152678 2514.609959 215.414038 2355.086543 C 107.366561 2195.4938 39.56391 2010.28441 10.792846 1820.118078 C -15.655734 1643.747991 7.811748 1461.138397 69.374891 1294.300891 C 146.536804 1096.99379 280.859542 922.218244 453.069956 798.606662 C 583.12903 701.928955 736.690249 641.267074 894.133829 606.360494 Z M 894.133829 606.360494 " stroke="#000000" stroke-width="0.094" stroke-opacity="1" stroke-miterlimit="4"/></g><g clip-path="url(#d218c01606)"><path stroke-linecap="butt" transform="matrix(0.112689, 0, 0, 0.112689, 0.522044, 0.849422)" fill-opacity="1" fill="#0cc0df" fill-rule="nonzero" stroke-linejoin="miter" d="M 608.399036 1032.38022 C 595.330734 1066.281546 580.251924 1099.385601 566.386351 1133.009615 C 441.353547 1451.051193 480.211815 1823.792455 653.912779 2116.252051 C 680.18804 2161.869785 716.86248 2202.010619 732.842553 2253.174583 C 854.859594 2600.056552 1172.727852 2862.878485 1530.806271 2936.366021 C 1630.361084 2961.428044 1733.243635 2960.526782 1834.6703 2971.445921 C 1661.97459 3008.016369 1480.439578 3012.592008 1308.922441 2967.078265 C 962.629759 2875.461493 658.76573 2631.808714 497.855757 2311.271333 C 413.795721 2148.281524 372.961609 1965.463946 363.047725 1783.062335 C 351.643291 1514.174213 438.095138 1241.438395 608.399036 1032.38022 Z M 608.399036 1032.38022 " stroke="#000000" stroke-width="0.094" stroke-opacity="1" stroke-miterlimit="4"/></g><path stroke-linecap="butt" transform="matrix(0.112689, 0, 0, 0.112689, 0.522044, 0.849422)" fill-opacity="1" fill="#0cc0df" fill-rule="nonzero" stroke-linejoin="miter" d="M 968.175988 1501.383222 C 978.783152 1492.3706 991.678134 1486.824371 1003.98383 1480.480871 C 1000.89874 1484.25924 994.971208 1491.781313 991.886118 1495.663673 C 913.961598 1601.735306 866.576003 1732.487658 870.735675 1865.042534 C 874.999339 2034.167859 951.641293 2195.875103 1064.056425 2320.110636 C 1183.508335 2449.372439 1340.570611 2540.989211 1508.101396 2592.846454 C 1683.674212 2649.625975 1872.627306 2657.182712 2054.058327 2627.025091 C 2258.887502 2589.657372 2452.624219 2495.960763 2610.137127 2359.835502 C 2723.072218 2259.518082 2821.691105 2141.938024 2895.074649 2009.591131 C 2929.669253 1947.716012 2955.632538 1881.785214 2983.017045 1816.651685 C 2977.852119 1886.846148 2957.435063 1954.752791 2935.423466 2021.272877 C 2867.898126 2226.206043 2751.704626 2414.985818 2599.044668 2567.437792 C 2477.304939 2689.385505 2330.676506 2790.326875 2164.80959 2841.178864 C 1796.124008 2963.611872 1371.005544 2863.779748 1079.62053 2611.564977 C 940.236859 2492.217059 831.669423 2333.386922 785.18509 2154.936999 C 750.070527 2022.000819 752.56633 1878.31882 797.456122 1748.155755 C 830.49085 1652.205991 891.464706 1567.314021 968.175988 1501.383222 Z M 968.175988 1501.383222 " stroke="#000000" stroke-width="0.094" stroke-opacity="1" stroke-miterlimit="4"/></g></g></g></g></g></g></svg>